<svg xmlns="http://www.w3.org/2000/svg" width="1472.66" height="720.444" viewBox="0 0 1472.66 720.444"><defs><style>.a{fill:#dbdbdb;}.b{fill:#ebebeb;}.c{fill:#a6a6a6;}.d{fill:#c7c7c7;}.e{fill:#fff;}.f{fill:#263238;}</style></defs><g transform="translate(0 -47.556)"><g transform="translate(557.284 47.901)"><g transform="translate(622.232 218.492)"><rect class="a" width="91.891" height="481.688"/><g transform="translate(14.263 15.646)"><rect class="b" width="17.863" height="18.392"/><rect class="b" width="17.863" height="18.392" transform="translate(22.85)"/><rect class="b" width="17.863" height="18.392" transform="translate(0 31.226)"/><rect class="b" width="17.863" height="18.392" transform="translate(22.85 31.226)"/><rect class="b" width="17.863" height="18.393" transform="translate(0 62.452)"/><rect class="b" width="17.863" height="18.393" transform="translate(22.85 62.452)"/><rect class="b" width="17.863" height="18.393" transform="translate(0 93.678)"/><rect class="b" width="17.863" height="18.393" transform="translate(22.85 93.678)"/><rect class="b" width="17.863" height="18.392" transform="translate(0 124.904)"/><rect class="b" width="17.863" height="18.392" transform="translate(22.85 124.904)"/><rect class="b" width="17.863" height="18.392" transform="translate(0 156.131)"/><rect class="b" width="17.863" height="18.392" transform="translate(22.85 156.131)"/><rect class="b" width="17.863" height="18.392" transform="translate(0 187.357)"/><rect class="b" width="17.863" height="18.392" transform="translate(22.85 187.357)"/><rect class="b" width="17.863" height="18.392" transform="translate(0 218.583)"/><rect class="b" width="17.863" height="18.392" transform="translate(22.85 218.583)"/><rect class="b" width="17.863" height="18.393" transform="translate(0 249.809)"/><rect class="b" width="17.863" height="18.393" transform="translate(22.85 249.809)"/><rect class="b" width="17.863" height="18.393" transform="translate(0 281.035)"/><rect class="b" width="17.863" height="18.393" transform="translate(22.85 281.035)"/><rect class="b" width="17.863" height="18.393" transform="translate(0 312.261)"/><rect class="b" width="17.863" height="18.393" transform="translate(22.85 312.261)"/><rect class="b" width="17.863" height="18.392" transform="translate(0 343.487)"/><rect class="b" width="17.863" height="18.392" transform="translate(22.85 343.487)"/><rect class="b" width="17.863" height="18.392" transform="translate(0 374.713)"/><rect class="b" width="17.863" height="18.392" transform="translate(22.85 374.713)"/><rect class="b" width="17.863" height="18.392" transform="translate(0 405.94)"/><rect class="b" width="17.863" height="18.392" transform="translate(63.365 424.332) rotate(180)"/><rect class="b" width="17.863" height="18.392" transform="translate(63.365 393.106) rotate(180)"/><rect class="b" width="17.863" height="18.392" transform="translate(63.365 361.88) rotate(180)"/><rect class="b" width="17.863" height="18.393" transform="translate(63.365 330.654) rotate(180)"/><rect class="b" width="17.863" height="18.393" transform="translate(63.365 299.428) rotate(180)"/><rect class="b" width="17.863" height="18.393" transform="translate(63.365 268.201) rotate(180)"/><rect class="b" width="17.863" height="18.392" transform="translate(63.365 236.975) rotate(180)"/><rect class="b" width="17.863" height="18.392" transform="translate(63.365 205.749) rotate(180)"/><rect class="b" width="17.863" height="18.392" transform="translate(63.365 174.523) rotate(180)"/><rect class="b" width="17.863" height="18.392" transform="translate(63.365 143.297) rotate(180)"/><rect class="b" width="17.863" height="18.393" transform="translate(63.365 112.071) rotate(180)"/><rect class="b" width="17.863" height="18.393" transform="translate(63.365 80.845) rotate(180)"/><rect class="b" width="17.863" height="18.392" transform="translate(63.365 49.619) rotate(180)"/><rect class="b" width="17.863" height="18.392" transform="translate(63.365 18.392) rotate(180)"/><rect class="b" width="17.863" height="18.392" transform="translate(22.85 405.94)"/></g><g transform="translate(91.891)"><rect class="c" width="72.45" height="481.688"/><g transform="translate(12.653 15.646)"><rect class="d" width="14.751" height="18.392" transform="translate(52.327 424.332) rotate(180)"/><rect class="d" width="14.751" height="18.392" transform="translate(33.457 424.332) rotate(180)"/><rect class="d" width="14.751" height="18.392" transform="translate(52.327 393.106) rotate(180)"/><rect class="d" width="14.751" height="18.392" transform="translate(33.457 393.106) rotate(180)"/><rect class="d" width="14.751" height="18.392" transform="translate(52.327 361.88) rotate(180)"/><rect class="d" width="14.751" height="18.392" transform="translate(33.457 361.88) rotate(180)"/><rect class="d" width="14.751" height="18.393" transform="translate(52.327 330.654) rotate(180)"/><rect class="d" width="14.751" height="18.393" transform="translate(33.457 330.654) rotate(180)"/><rect class="d" width="14.751" height="18.393" transform="translate(52.327 299.428) rotate(180)"/><rect class="d" width="14.751" height="18.393" transform="translate(33.457 299.428) rotate(180)"/><rect class="d" width="14.751" height="18.393" transform="translate(52.327 268.201) rotate(180)"/><rect class="d" width="14.751" height="18.393" transform="translate(33.457 268.201) rotate(180)"/><rect class="d" width="14.751" height="18.392" transform="translate(52.327 236.975) rotate(180)"/><rect class="d" width="14.751" height="18.392" transform="translate(33.457 236.975) rotate(180)"/><rect class="d" width="14.751" height="18.392" transform="translate(52.327 205.749) rotate(180)"/><rect class="d" width="14.751" height="18.392" transform="translate(33.457 205.749) rotate(180)"/><rect class="d" width="14.751" height="18.392" transform="translate(52.327 174.523) rotate(180)"/><rect class="d" width="14.751" height="18.392" transform="translate(33.457 174.523) rotate(180)"/><rect class="d" width="14.751" height="18.392" transform="translate(52.327 143.297) rotate(180)"/><rect class="d" width="14.751" height="18.392" transform="translate(33.457 143.297) rotate(180)"/><rect class="d" width="14.751" height="18.393" transform="translate(52.327 112.071) rotate(180)"/><rect class="d" width="14.751" height="18.393" transform="translate(33.457 112.071) rotate(180)"/><rect class="d" width="14.751" height="18.393" transform="translate(52.327 80.845) rotate(180)"/><rect class="d" width="14.751" height="18.393" transform="translate(33.457 80.845) rotate(180)"/><rect class="d" width="14.751" height="18.392" transform="translate(52.327 49.619) rotate(180)"/><rect class="d" width="14.751" height="18.392" transform="translate(33.457 49.619) rotate(180)"/><rect class="d" width="14.751" height="18.392" transform="translate(52.327 18.392) rotate(180)"/><rect class="d" width="14.751" height="18.392"/><rect class="d" width="14.751" height="18.392" transform="translate(0 31.226)"/><rect class="d" width="14.751" height="18.393" transform="translate(0 62.452)"/><rect class="d" width="14.751" height="18.393" transform="translate(0 93.678)"/><rect class="d" width="14.751" height="18.392" transform="translate(0 124.904)"/><rect class="d" width="14.751" height="18.392" transform="translate(0 156.131)"/><rect class="d" width="14.751" height="18.392" transform="translate(0 187.357)"/><rect class="d" width="14.751" height="18.392" transform="translate(0 218.583)"/><rect class="d" width="14.751" height="18.393" transform="translate(0 249.809)"/><rect class="d" width="14.751" height="18.393" transform="translate(0 281.035)"/><rect class="d" width="14.751" height="18.393" transform="translate(0 312.261)"/><rect class="d" width="14.751" height="18.392" transform="translate(0 343.487)"/><rect class="d" width="14.751" height="18.392" transform="translate(0 374.713)"/><rect class="d" width="14.751" height="18.392" transform="translate(0 405.94)"/><rect class="d" width="14.751" height="18.392" transform="translate(33.457 18.392) rotate(180)"/></g></g></g><g transform="translate(149.417 198.179)"><rect class="b" width="95.86" height="492.199" transform="translate(2.306 9.801)"/><rect class="d" width="98.166" height="9.801"/><g transform="translate(10.973 24.247)"><rect class="e" width="9.712" height="477.753"/><rect class="e" width="9.712" height="477.753" transform="translate(17.204)"/><rect class="e" width="9.712" height="477.753" transform="translate(34.407)"/><rect class="e" width="9.712" height="477.753" transform="translate(51.61)"/><rect class="e" width="9.712" height="477.753" transform="translate(68.814)"/><g transform="translate(0 12.384)"><rect class="b" width="9.712" height="19.347"/><rect class="b" width="9.712" height="19.347" transform="translate(17.204)"/><rect class="b" width="9.712" height="19.347" transform="translate(34.407)"/><rect class="b" width="9.712" height="19.347" transform="translate(51.61)"/><rect class="b" width="9.712" height="19.347" transform="translate(68.814)"/></g><g transform="translate(0 43.828)"><rect class="b" width="9.712" height="19.348"/><rect class="b" width="9.712" height="19.348" transform="translate(17.204)"/><rect class="b" width="9.712" height="19.348" transform="translate(34.407)"/><rect class="b" width="9.712" height="19.348" transform="translate(51.61)"/><rect class="b" width="9.712" height="19.348" transform="translate(68.814)"/></g><g transform="translate(0 75.273)"><rect class="b" width="9.712" height="19.348"/><rect class="b" width="9.712" height="19.348" transform="translate(17.204)"/><rect class="b" width="9.712" height="19.348" transform="translate(34.407)"/><rect class="b" width="9.712" height="19.348" transform="translate(51.61)"/><rect class="b" width="9.712" height="19.348" transform="translate(68.814)"/></g><g transform="translate(0 106.718)"><rect class="b" width="9.712" height="19.348"/><rect class="b" width="9.712" height="19.348" transform="translate(17.204)"/><rect class="b" width="9.712" height="19.348" transform="translate(34.407)"/><rect class="b" width="9.712" height="19.348" transform="translate(51.61)"/><rect class="b" width="9.712" height="19.348" transform="translate(68.814)"/></g><g transform="translate(0 138.162)"><rect class="b" width="9.712" height="19.348"/><rect class="b" width="9.712" height="19.348" transform="translate(17.204)"/><rect class="b" width="9.712" height="19.348" transform="translate(34.407)"/><rect class="b" width="9.712" height="19.348" transform="translate(51.61)"/><rect class="b" width="9.712" height="19.348" transform="translate(68.814)"/></g><g transform="translate(0 169.606)"><rect class="b" width="9.712" height="19.348"/><rect class="b" width="9.712" height="19.348" transform="translate(17.204)"/><rect class="b" width="9.712" height="19.348" transform="translate(34.407)"/><rect class="b" width="9.712" height="19.348" transform="translate(51.61)"/><rect class="b" width="9.712" height="19.348" transform="translate(68.814)"/></g><g transform="translate(0 201.051)"><rect class="b" width="9.712" height="19.347"/><rect class="b" width="9.712" height="19.347" transform="translate(17.204)"/><rect class="b" width="9.712" height="19.347" transform="translate(34.407)"/><rect class="b" width="9.712" height="19.347" transform="translate(51.61)"/><rect class="b" width="9.712" height="19.347" transform="translate(68.814)"/></g><g transform="translate(0 232.496)"><rect class="b" width="9.712" height="19.348"/><rect class="b" width="9.712" height="19.348" transform="translate(17.204)"/><rect class="b" width="9.712" height="19.348" transform="translate(34.407)"/><rect class="b" width="9.712" height="19.348" transform="translate(51.61)"/><rect class="b" width="9.712" height="19.348" transform="translate(68.814)"/></g><g transform="translate(0 263.94)"><rect class="b" width="9.712" height="19.348"/><rect class="b" width="9.712" height="19.348" transform="translate(17.204)"/><rect class="b" width="9.712" height="19.348" transform="translate(34.407)"/><rect class="b" width="9.712" height="19.348" transform="translate(51.61)"/><rect class="b" width="9.712" height="19.348" transform="translate(68.814)"/></g><g transform="translate(0 295.385)"><rect class="b" width="9.712" height="19.348"/><rect class="b" width="9.712" height="19.348" transform="translate(17.204)"/><rect class="b" width="9.712" height="19.348" transform="translate(34.407)"/><rect class="b" width="9.712" height="19.348" transform="translate(51.61)"/><rect class="b" width="9.712" height="19.348" transform="translate(68.814)"/></g><g transform="translate(0 326.829)"><rect class="b" width="9.712" height="19.348"/><rect class="b" width="9.712" height="19.348" transform="translate(17.204)"/><rect class="b" width="9.712" height="19.348" transform="translate(34.407)"/><rect class="b" width="9.712" height="19.348" transform="translate(51.61)"/><rect class="b" width="9.712" height="19.348" transform="translate(68.814)"/></g><g transform="translate(0 358.274)"><rect class="b" width="9.712" height="19.348"/><rect class="b" width="9.712" height="19.348" transform="translate(17.204)"/><rect class="b" width="9.712" height="19.348" transform="translate(34.407)"/><rect class="b" width="9.712" height="19.348" transform="translate(51.61)"/><rect class="b" width="9.712" height="19.348" transform="translate(68.814)"/></g><g transform="translate(0 389.718)"><rect class="b" width="9.712" height="19.348"/><rect class="b" width="9.712" height="19.348" transform="translate(17.204)"/><rect class="b" width="9.712" height="19.348" transform="translate(34.407)"/><rect class="b" width="9.712" height="19.348" transform="translate(51.61)"/><rect class="b" width="9.712" height="19.348" transform="translate(68.814)"/></g><g transform="translate(0 421.163)"><rect class="b" width="9.712" height="56.59"/><rect class="b" width="9.712" height="56.59" transform="translate(17.204)"/><rect class="b" width="9.712" height="56.59" transform="translate(34.407)"/><rect class="b" width="9.712" height="56.59" transform="translate(51.61)"/><rect class="b" width="9.712" height="56.59" transform="translate(68.814)"/></g></g><g transform="translate(98.166)"><rect class="a" width="61.543" height="492.199" transform="translate(0 9.801)"/><rect class="d" width="64.206" height="9.801"/><g transform="translate(8.667 24.247)"><rect class="d" width="9.712" height="477.753"/><rect class="d" width="9.712" height="477.753" transform="translate(17.204)"/><rect class="d" width="9.712" height="477.753" transform="translate(34.407)"/><g transform="translate(0 12.384)"><rect class="a" width="9.712" height="19.347"/><rect class="a" width="9.712" height="19.347" transform="translate(17.204)"/><rect class="a" width="9.712" height="19.347" transform="translate(34.407)"/></g><g transform="translate(0 43.828)"><rect class="a" width="9.712" height="19.348"/><rect class="a" width="9.712" height="19.348" transform="translate(17.204)"/><rect class="a" width="9.712" height="19.348" transform="translate(34.407)"/></g><g transform="translate(0 75.273)"><rect class="a" width="9.712" height="19.348"/><rect class="a" width="9.712" height="19.348" transform="translate(17.204)"/><rect class="a" width="9.712" height="19.348" transform="translate(34.407)"/></g><g transform="translate(0 106.718)"><rect class="a" width="9.712" height="19.348"/><rect class="a" width="9.712" height="19.348" transform="translate(17.204)"/><rect class="a" width="9.712" height="19.348" transform="translate(34.407)"/></g><g transform="translate(0 138.162)"><rect class="a" width="9.712" height="19.348"/><rect class="a" width="9.712" height="19.348" transform="translate(17.204)"/><rect class="a" width="9.712" height="19.348" transform="translate(34.407)"/></g><g transform="translate(0 169.606)"><rect class="a" width="9.712" height="19.348"/><rect class="a" width="9.712" height="19.348" transform="translate(17.204)"/><rect class="a" width="9.712" height="19.348" transform="translate(34.407)"/></g><g transform="translate(0 201.051)"><rect class="a" width="9.712" height="19.347"/><rect class="a" width="9.712" height="19.347" transform="translate(17.204)"/><rect class="a" width="9.712" height="19.347" transform="translate(34.407)"/></g><g transform="translate(0 232.496)"><rect class="a" width="9.712" height="19.348"/><rect class="a" width="9.712" height="19.348" transform="translate(17.204)"/><rect class="a" width="9.712" height="19.348" transform="translate(34.407)"/></g><g transform="translate(0 263.94)"><rect class="a" width="9.712" height="19.348"/><rect class="a" width="9.712" height="19.348" transform="translate(17.204)"/><rect class="a" width="9.712" height="19.348" transform="translate(34.407)"/></g><g transform="translate(0 295.385)"><rect class="a" width="9.712" height="19.348"/><rect class="a" width="9.712" height="19.348" transform="translate(17.204)"/><rect class="a" width="9.712" height="19.348" transform="translate(34.407)"/></g><g transform="translate(0 326.829)"><rect class="a" width="9.712" height="19.348"/><rect class="a" width="9.712" height="19.348" transform="translate(17.204)"/><rect class="a" width="9.712" height="19.348" transform="translate(34.407)"/></g><g transform="translate(0 358.274)"><rect class="a" width="9.712" height="19.348"/><rect class="a" width="9.712" height="19.348" transform="translate(17.204)"/><rect class="a" width="9.712" height="19.348" transform="translate(34.407)"/></g><g transform="translate(0 389.718)"><rect class="a" width="9.712" height="19.348"/><rect class="a" width="9.712" height="19.348" transform="translate(17.204)"/><rect class="a" width="9.712" height="19.348" transform="translate(34.407)"/></g><g transform="translate(0 421.163)"><rect class="a" width="9.712" height="56.59"/><rect class="a" width="9.712" height="56.59" transform="translate(17.204)"/><rect class="a" width="9.712" height="56.59" transform="translate(34.407)"/></g></g></g></g><g transform="translate(44.716 332.528)"><rect class="b" width="90.912" height="344.784" transform="translate(0 22.867)"/><rect class="d" width="77.981" height="22.867" transform="translate(12.931)"/><g transform="translate(9.968 34.802)"><rect class="a" width="70.977" height="257.748"/><g transform="translate(0 24.597)"><rect class="e" width="70.977" height="6.091"/><rect class="e" width="70.977" height="6.091" transform="translate(0 25.229)"/><rect class="e" width="70.977" height="6.091" transform="translate(0 50.458)"/><rect class="e" width="70.977" height="6.091" transform="translate(0 75.687)"/><rect class="e" width="70.977" height="6.091" transform="translate(0 100.916)"/><rect class="e" width="70.977" height="6.091" transform="translate(0 126.145)"/><rect class="e" width="70.977" height="6.091" transform="translate(0 151.374)"/><rect class="e" width="70.977" height="6.091" transform="translate(0 176.602)"/><rect class="e" width="70.977" height="6.091" transform="translate(0 201.831)"/><rect class="e" width="70.977" height="6.091" transform="translate(0 227.06)"/></g></g><g transform="translate(90.912)"><rect class="a" width="56.943" height="344.784" transform="translate(0 22.867)"/><rect class="c" width="48.398" height="22.867"/><g transform="translate(7.85 34.802)"><rect class="d" width="43.781" height="257.748"/><g transform="translate(0 24.597)"><rect class="e" width="43.781" height="6.091"/><rect class="e" width="43.781" height="6.091" transform="translate(0 25.229)"/><rect class="e" width="43.781" height="6.091" transform="translate(0 50.458)"/><rect class="e" width="43.781" height="6.091" transform="translate(0 75.687)"/><rect class="e" width="43.781" height="6.091" transform="translate(0 100.916)"/><rect class="e" width="43.781" height="6.091" transform="translate(0 126.145)"/><rect class="e" width="43.781" height="6.091" transform="translate(0 151.374)"/><rect class="e" width="43.781" height="6.091" transform="translate(0 176.602)"/><rect class="e" width="43.781" height="6.091" transform="translate(0 201.831)"/><rect class="e" width="43.781" height="6.091" transform="translate(0 227.06)"/></g></g></g></g><g transform="translate(773.242 361.208)"><rect class="a" width="48.555" height="57.356" transform="translate(18.623)"/><rect class="d" width="30.786" height="59.46" transform="translate(67.178)"/><rect class="a" width="30.554" height="34.132" transform="translate(69.46 25.328)"/><rect class="d" width="19.056" height="34.132" transform="translate(100.013 25.328)"/><g transform="translate(0 53.628)"><rect class="b" width="78.513" height="285.343"/><g transform="translate(8.975 12.266)"><rect class="e" width="24.689" height="10.088"/><rect class="e" width="24.689" height="10.088" transform="translate(31.583)"/><rect class="e" width="24.689" height="10.088" transform="translate(0 17.127)"/><rect class="e" width="24.689" height="10.088" transform="translate(31.583 17.127)"/><rect class="e" width="24.689" height="10.088" transform="translate(0 34.254)"/><rect class="e" width="24.689" height="10.088" transform="translate(31.583 34.254)"/><rect class="e" width="24.689" height="10.088" transform="translate(0 51.381)"/><rect class="e" width="24.689" height="10.088" transform="translate(31.583 51.381)"/><rect class="e" width="24.689" height="10.088" transform="translate(0 68.509)"/><rect class="e" width="24.689" height="10.088" transform="translate(31.583 68.509)"/><rect class="e" width="24.689" height="10.088" transform="translate(0 85.636)"/><rect class="e" width="24.689" height="10.088" transform="translate(31.583 85.636)"/><rect class="e" width="24.689" height="10.088" transform="translate(0 102.763)"/><rect class="e" width="24.689" height="10.088" transform="translate(31.583 102.763)"/><rect class="e" width="24.689" height="10.088" transform="translate(0 119.89)"/><rect class="e" width="24.689" height="10.088" transform="translate(31.583 119.89)"/><rect class="e" width="24.689" height="10.088" transform="translate(0 137.017)"/><rect class="e" width="24.689" height="10.088" transform="translate(31.583 137.017)"/><rect class="e" width="24.689" height="10.088" transform="translate(0 154.144)"/><rect class="e" width="24.689" height="10.088" transform="translate(31.583 154.144)"/><rect class="e" width="24.689" height="10.088" transform="translate(0 171.272)"/><rect class="e" width="24.689" height="10.088" transform="translate(31.583 171.272)"/><rect class="e" width="24.689" height="10.088" transform="translate(0 188.399)"/><rect class="e" width="24.689" height="10.088" transform="translate(31.583 188.399)"/><rect class="e" width="24.689" height="10.088" transform="translate(0 205.526)"/><rect class="e" width="24.689" height="10.088" transform="translate(31.583 205.526)"/><rect class="e" width="24.689" height="10.088" transform="translate(0 222.653)"/><rect class="e" width="24.689" height="10.088" transform="translate(31.583 222.653)"/></g></g><g transform="translate(78.513 53.628)"><rect class="d" width="63.621" height="285.343"/><g transform="translate(11.04 12.266)"><rect class="b" width="20.271" height="10.088" transform="translate(46.202 232.741) rotate(180)"/><rect class="b" width="20.271" height="10.088" transform="translate(20.271 232.741) rotate(180)"/><rect class="b" width="20.271" height="10.088" transform="translate(46.202 215.614) rotate(180)"/><rect class="b" width="20.271" height="10.088" transform="translate(20.271 215.614) rotate(180)"/><rect class="b" width="20.271" height="10.088" transform="translate(46.202 198.487) rotate(180)"/><rect class="b" width="20.271" height="10.088" transform="translate(20.271 198.487) rotate(180)"/><rect class="b" width="20.271" height="10.088" transform="translate(46.202 181.36) rotate(180)"/><rect class="b" width="20.271" height="10.088" transform="translate(20.271 181.36) rotate(180)"/><rect class="b" width="20.271" height="10.088" transform="translate(46.202 164.232) rotate(180)"/><rect class="b" width="20.271" height="10.088" transform="translate(20.271 164.232) rotate(180)"/><rect class="b" width="20.271" height="10.088" transform="translate(46.202 147.105) rotate(180)"/><rect class="b" width="20.271" height="10.088" transform="translate(20.271 147.105) rotate(180)"/><rect class="b" width="20.271" height="10.088" transform="translate(46.202 129.978) rotate(180)"/><rect class="b" width="20.271" height="10.088" transform="translate(20.271 129.978) rotate(180)"/><rect class="b" width="20.271" height="10.088" transform="translate(46.202 112.851) rotate(180)"/><rect class="b" width="20.271" height="10.088" transform="translate(20.271 112.851) rotate(180)"/><rect class="b" width="20.271" height="10.088" transform="translate(46.202 95.724) rotate(180)"/><rect class="b" width="20.271" height="10.088" transform="translate(20.271 95.724) rotate(180)"/><rect class="b" width="20.271" height="10.088" transform="translate(46.202 78.597) rotate(180)"/><rect class="b" width="20.271" height="10.088" transform="translate(20.271 78.597) rotate(180)"/><rect class="b" width="20.271" height="10.088" transform="translate(46.202 61.469) rotate(180)"/><rect class="b" width="20.271" height="10.088" transform="translate(20.271 61.469) rotate(180)"/><rect class="b" width="20.271" height="10.088" transform="translate(46.202 44.342) rotate(180)"/><rect class="b" width="20.271" height="10.088" transform="translate(20.271 44.342) rotate(180)"/><rect class="b" width="20.271" height="10.088" transform="translate(46.202 27.215) rotate(180)"/><rect class="b" width="20.271" height="10.088" transform="translate(20.271 27.215) rotate(180)"/><rect class="b" width="20.271" height="10.088" transform="translate(46.202 10.088) rotate(180)"/><rect class="b" width="20.271" height="10.088" transform="translate(20.271 10.088) rotate(180)"/></g></g></g><g transform="translate(475.555 482.88)"><rect class="d" width="92.606" height="185.933" transform="translate(0 31.366)"/><g transform="translate(14.563 47.46)"><rect class="a" width="16.389" height="11.392"/><rect class="a" width="16.389" height="11.392" transform="translate(0 24.331)"/><rect class="a" width="16.389" height="11.392" transform="translate(0 48.662)"/><rect class="a" width="16.389" height="11.392" transform="translate(0 72.994)"/><rect class="a" width="16.389" height="11.392" transform="translate(0 97.325)"/><rect class="a" width="16.389" height="11.392" transform="translate(0 121.656)"/><rect class="a" width="16.389" height="11.392" transform="translate(0 145.987)"/><rect class="a" width="16.389" height="11.392" transform="translate(23.575)"/><rect class="a" width="16.389" height="11.392" transform="translate(23.575 24.331)"/><rect class="a" width="16.389" height="11.392" transform="translate(23.575 48.662)"/><rect class="a" width="16.389" height="11.392" transform="translate(23.575 72.994)"/><rect class="a" width="16.389" height="11.392" transform="translate(23.575 97.325)"/><rect class="a" width="16.389" height="11.392" transform="translate(23.575 121.656)"/><rect class="a" width="16.389" height="11.392" transform="translate(23.575 145.987)"/><rect class="a" width="16.389" height="11.392" transform="translate(47.091)"/><rect class="a" width="16.389" height="11.392" transform="translate(47.091 24.331)"/><rect class="a" width="16.389" height="11.392" transform="translate(47.091 48.662)"/><rect class="a" width="16.389" height="11.392" transform="translate(47.091 72.994)"/><rect class="a" width="16.389" height="11.392" transform="translate(47.091 97.325)"/><rect class="a" width="16.389" height="11.392" transform="translate(47.091 121.656)"/><rect class="a" width="16.389" height="11.392" transform="translate(47.091 145.987)"/></g><rect class="a" width="61.654" height="19.372" transform="translate(30.952 11.993)"/><rect class="b" width="39.088" height="11.993" transform="translate(53.518)"/><g transform="translate(92.606)"><rect class="c" width="64.973" height="185.933" transform="translate(0 31.366)"/><g transform="translate(6.65 45.643)"><rect class="d" width="13.341" height="11.392" transform="translate(51.673 157.379) rotate(180)"/><rect class="d" width="13.341" height="11.392" transform="translate(51.673 133.048) rotate(180)"/><rect class="d" width="13.341" height="11.392" transform="translate(51.673 108.716) rotate(180)"/><rect class="d" width="13.341" height="11.392" transform="translate(51.673 84.385) rotate(180)"/><rect class="d" width="13.341" height="11.392" transform="translate(51.673 60.054) rotate(180)"/><rect class="d" width="13.341" height="11.392" transform="translate(51.673 35.723) rotate(180)"/><rect class="d" width="13.341" height="11.392" transform="translate(51.673 11.392) rotate(180)"/><rect class="d" width="13.34" height="11.392" transform="translate(32.483 157.379) rotate(180)"/><rect class="d" width="13.34" height="11.392" transform="translate(32.483 133.048) rotate(180)"/><rect class="d" width="13.34" height="11.392" transform="translate(32.483 108.716) rotate(180)"/><rect class="d" width="13.34" height="11.392" transform="translate(32.483 84.385) rotate(180)"/><rect class="d" width="13.34" height="11.392" transform="translate(32.483 60.054) rotate(180)"/><rect class="d" width="13.34" height="11.392" transform="translate(32.483 35.723) rotate(180)"/><rect class="d" width="13.34" height="11.392" transform="translate(32.483 11.392) rotate(180)"/><rect class="d" width="13.34" height="11.392" transform="translate(13.34 157.379) rotate(180)"/><rect class="d" width="13.34" height="11.392" transform="translate(13.34 133.048) rotate(180)"/><rect class="d" width="13.34" height="11.392" transform="translate(13.34 108.716) rotate(180)"/><rect class="d" width="13.34" height="11.392" transform="translate(13.34 84.385) rotate(180)"/><rect class="d" width="13.34" height="11.392" transform="translate(13.34 60.054) rotate(180)"/><rect class="d" width="13.34" height="11.392" transform="translate(13.34 35.723) rotate(180)"/><rect class="d" width="13.34" height="11.392" transform="translate(13.34 11.392) rotate(180)"/></g><rect class="d" width="55.131" height="19.372" transform="translate(0 11.993)"/><rect class="a" width="29.875" height="11.993"/></g></g></g><g transform="translate(189.226 64.402)"><path class="b" d="M45.291,187.841H213.349s-23.013-51.382-47.633-54.594-36.4,38.18-36.4,38.18S113.44,156.8,100.952,156.8,78.83,176.067,78.83,176.067,53.854,162.863,45.291,187.841Z" transform="translate(184.709 -133.07)"/><path class="b" d="M213.349,187.841H45.291S68.3,136.459,92.925,133.247s36.4,38.18,36.4,38.18S145.2,156.8,157.688,156.8s22.123,19.269,22.123,19.269S204.786,162.863,213.349,187.841Z" transform="translate(-165.291 -19.721)"/></g><path class="b" d="M453.181,120.163H349.107s23.254-33.691,41.577-33.691,23.735,22.463,23.735,22.463,12.93-10.485,24.911-8.612S453.181,120.163,453.181,120.163Z" transform="translate(754.944 -38.916)"/><g transform="translate(-41.363 320.448)"><g transform="translate(41.363 427.633)"><rect class="d" width="1366" height="19.918" transform="translate(0 0.001)"/><g transform="translate(94.142)"><path class="f" d="M71.745,427.633a28.241,28.241,0,0,1,1.624,9.961,27.86,27.86,0,0,1-1.624,9.958,28.005,28.005,0,0,1-1.624-9.958A28.316,28.316,0,0,1,71.745,427.633Z" transform="translate(-70.121 -427.633)"/><path class="f" d="M104.36,427.633a28.241,28.241,0,0,1,1.624,9.961,27.86,27.86,0,0,1-1.624,9.958,28,28,0,0,1-1.624-9.958A28.316,28.316,0,0,1,104.36,427.633Z" transform="translate(4.033 -427.633)"/><path class="f" d="M136.975,427.633a28.243,28.243,0,0,1,1.624,9.961,27.861,27.861,0,0,1-1.624,9.958,28,28,0,0,1-1.624-9.958A28.316,28.316,0,0,1,136.975,427.633Z" transform="translate(78.188 -427.633)"/><path class="f" d="M169.59,427.633a28.166,28.166,0,0,1,1.624,9.961,27.859,27.859,0,0,1-1.624,9.958,28,28,0,0,1-1.624-9.958A28.314,28.314,0,0,1,169.59,427.633Z" transform="translate(152.342 -427.633)"/><path class="f" d="M202.2,427.633a28.168,28.168,0,0,1,1.624,9.961,27.861,27.861,0,0,1-1.624,9.958,27.928,27.928,0,0,1-1.62-9.958A28.238,28.238,0,0,1,202.2,427.633Z" transform="translate(226.499 -427.633)"/><path class="f" d="M234.82,427.633a28.169,28.169,0,0,1,1.624,9.961,27.861,27.861,0,0,1-1.624,9.958,28.007,28.007,0,0,1-1.624-9.958A28.317,28.317,0,0,1,234.82,427.633Z" transform="translate(300.651 -427.633)"/><path class="f" d="M267.432,427.633a28.169,28.169,0,0,1,1.624,9.961,27.862,27.862,0,0,1-1.624,9.958,27.927,27.927,0,0,1-1.62-9.958A28.236,28.236,0,0,1,267.432,427.633Z" transform="translate(374.808 -427.633)"/><path class="f" d="M300.047,427.633a28.166,28.166,0,0,1,1.624,9.961,27.859,27.859,0,0,1-1.624,9.958,27.928,27.928,0,0,1-1.62-9.958A28.238,28.238,0,0,1,300.047,427.633Z" transform="translate(448.963 -427.633)"/><path class="f" d="M332.666,427.633a28.239,28.239,0,0,1,1.62,9.961,27.928,27.928,0,0,1-1.62,9.958,27.862,27.862,0,0,1-1.624-9.958A28.172,28.172,0,0,1,332.666,427.633Z" transform="translate(523.117 -427.633)"/><path class="f" d="M365.281,427.633a28.316,28.316,0,0,1,1.624,9.961,28.005,28.005,0,0,1-1.624,9.958,27.857,27.857,0,0,1-1.624-9.958A28.164,28.164,0,0,1,365.281,427.633Z" transform="translate(597.272 -427.633)"/><path class="f" d="M397.9,427.633a28.239,28.239,0,0,1,1.62,9.961,27.928,27.928,0,0,1-1.62,9.958,27.86,27.86,0,0,1-1.624-9.958A28.241,28.241,0,0,1,397.9,427.633Z" transform="translate(671.426 -427.633)"/><path class="f" d="M430.511,427.633a28.316,28.316,0,0,1,1.624,9.961,28,28,0,0,1-1.624,9.958,27.862,27.862,0,0,1-1.624-9.958A28.244,28.244,0,0,1,430.511,427.633Z" transform="translate(745.581 -427.633)"/></g></g></g></g></svg>